<svg width="498" height="301" viewBox="0 0 498 301" fill="none" xmlns="http://www.w3.org/2000/svg">
<path d="M52.9653 298.324V275.059C52.9704 270.632 54.1211 268.606 55.4292 267.589C56.8238 266.504 58.7887 266.23 61.188 266.193H64.9165V253.9H26.9067V266.193H39.5903C39.1503 267.382 38.9173 268.794 38.8843 270.343V298.324H52.9653Z" fill="#4F73C2" stroke="white" stroke-width="3"/>
<path d="M100.4 299.151C104.674 299.151 108.561 298.166 112.026 296.17H112.027C115.479 294.18 118.198 291.418 120.163 287.912C122.136 284.392 123.11 280.447 123.11 276.111C123.11 271.778 122.136 267.831 120.163 264.313C118.198 260.805 115.479 258.044 112.026 256.056C108.561 254.059 104.674 253.072 100.4 253.072C96.124 253.072 92.2379 254.058 88.7737 256.055V256.056C85.3192 258.045 82.6018 260.807 80.637 264.314V264.313C78.6622 267.831 77.6907 271.779 77.6907 276.111C77.6907 280.447 78.6624 284.392 80.637 287.912L81.0139 288.561C82.9442 291.76 85.5351 294.305 88.7737 296.17C92.2381 298.166 96.1244 299.151 100.4 299.151ZM100.4 287.88C98.7831 287.88 97.3406 287.422 96.0315 286.495L96.0305 286.494C94.7198 285.568 93.6419 284.234 92.8235 282.427L92.8245 282.426C92.0195 280.639 91.5959 278.545 91.5959 276.111C91.596 273.676 92.0193 271.583 92.8245 269.796C93.643 267.989 94.7197 266.654 96.0305 265.728L96.0315 265.727C97.3406 264.8 98.7831 264.343 100.4 264.343C102.018 264.343 103.46 264.801 104.768 265.727L104.769 265.728C106.081 266.655 107.158 267.99 107.974 269.797C108.78 271.583 109.204 273.676 109.204 276.111C109.204 278.545 108.78 280.64 107.974 282.426C107.158 284.233 106.081 285.568 104.769 286.494L104.768 286.496C103.46 287.422 102.018 287.88 100.4 287.88Z" fill="#4F73C2" stroke="white" stroke-width="3"/>
<path d="M269.334 298.324V277.787L284.965 297.749L285.416 298.324H295.69V253.9H282.115V274.438L266.485 254.475L266.034 253.9H255.764V298.324H269.334Z" fill="#4F73C2" stroke="white" stroke-width="3"/>
<path d="M380.284 298.324V253.9H366.231V298.324H380.284Z" fill="#4F73C2" stroke="white" stroke-width="3"/>
<path d="M161.334 299.151C167.187 299.151 171.758 297.559 175.153 294.718C178.535 291.886 180.608 287.931 181.697 283.448L182.146 281.595H168.855L168.454 282.472C166.871 285.942 164.588 287.88 161.334 287.88C159.716 287.88 158.274 287.422 156.967 286.496L156.966 286.495C155.656 285.569 154.576 284.234 153.758 282.427L153.759 282.426C152.953 280.64 152.531 278.546 152.531 276.111C152.531 273.677 152.953 271.583 153.759 269.797H153.758C154.525 268.102 155.521 266.823 156.723 265.906L156.966 265.728L156.967 265.727C158.274 264.801 159.716 264.343 161.334 264.343C164.587 264.343 166.87 266.283 168.454 269.751L168.855 270.628H182.147L181.697 268.774C180.608 264.292 178.535 260.337 175.153 257.506C171.758 254.665 167.188 253.073 161.334 253.073C157.059 253.074 153.173 254.058 149.709 256.053C146.254 258.042 143.537 260.805 141.571 264.312C139.597 267.831 138.625 271.776 138.625 276.111C138.625 280.448 139.597 284.39 141.57 287.911L141.571 287.912C143.537 291.418 146.254 294.18 149.708 296.169C153.172 298.165 157.059 299.151 161.334 299.151Z" fill="#4F73C2" stroke="white" stroke-width="3"/>
<path d="M476.41 299.304C481.013 299.304 486.042 298.169 489.829 295.508L490.191 295.245C493.509 292.773 495.757 289.106 495.757 284.175C495.757 279.784 494.016 276.716 491.275 274.561L491.276 274.56C488.754 272.576 485.481 271.484 482.269 270.674L482.27 270.673C481.917 270.582 481.558 270.496 481.19 270.41L480.051 270.152C478.309 269.762 476.25 269.301 474.483 268.74C473.6 268.459 472.833 268.167 472.239 267.867C471.608 267.55 471.332 267.303 471.249 267.188C471.19 267.105 471.171 267.056 471.167 267.042L471.16 267.015C471.152 266.989 471.148 266.96 471.149 266.933L471.15 266.911L471.151 266.891L471.156 266.593C471.194 266.107 471.488 265.606 472.179 265.179C472.814 264.787 473.694 264.511 474.711 264.442H474.71C475.744 264.373 476.837 264.521 477.838 264.909C479.26 265.46 480.507 266.494 481.225 268.113L481.621 269.004H495.332L494.985 267.218C494.146 262.904 492.073 259.554 489.138 257.182L488.851 256.955C485.396 254.291 480.925 253.038 476.137 252.978L476.128 252.977H475.939C473.697 252.977 471.468 253.229 469.39 253.766V253.767C467.4 254.28 465.51 255.063 463.857 256.157V256.156C463.003 256.719 462.239 257.381 461.568 258.109L461.567 258.11C459.772 260.061 458.58 262.561 458.119 265.148L458.036 265.666C457.643 268.467 458.099 271.421 459.641 273.925L459.817 274.2C460.235 274.837 460.722 275.437 461.278 275.985L461.679 276.363C462.635 277.222 463.735 277.928 464.93 278.517L464.933 278.519C466.253 279.166 467.718 279.677 469.276 280.102L480.203 283.136C480.927 283.349 481.461 283.599 481.836 283.846C482.211 284.095 482.405 284.319 482.498 284.472L482.517 284.507L482.521 284.514C482.56 284.583 482.58 284.647 482.588 284.705C482.596 284.768 482.593 284.842 482.571 284.923L482.557 284.971L482.547 285.019L482.521 285.149L482.513 285.185L482.508 285.221C482.39 285.992 481.891 286.718 480.991 287.294L480.805 287.407C479.998 287.877 478.977 288.191 477.857 288.285L477.372 288.313C476.045 288.348 474.671 288.083 473.443 287.486L473.444 287.485C471.997 286.779 470.722 285.592 469.921 283.811L469.674 283.002L469.351 281.94H456.035L456.255 283.634L456.353 284.38L456.356 284.409L456.361 284.439C457.176 289.227 459.657 292.863 463.076 295.342L463.077 295.343C466.799 298.038 471.566 299.304 476.41 299.304Z" fill="#4F73C2" stroke="white" stroke-width="3"/>
<path d="M413.507 298.324V277.788L429.138 297.749L429.588 298.324H439.86V253.9H426.288V274.44L410.657 254.475L410.207 253.9H399.935V298.324H413.507Z" fill="#4F73C2" stroke="white" stroke-width="3"/>
<path d="M205.702 298.299L206.148 297.64C209.799 292.253 217.043 289.8 223.577 289.625L226.563 297.34L226.935 298.299H241.924L241.036 296.212L223.437 254.813L223.048 253.9H209.992L209.604 254.815L192.064 296.214L191.181 298.299H205.702ZM216.437 271.048L218.695 276.913C217.833 277.031 216.952 277.188 216.06 277.387L215.373 277.549C214.826 277.683 214.289 277.832 213.764 277.989L216.437 271.048Z" fill="#4F73C2" stroke="white" stroke-width="3"/>
<path d="M338.013 298.324V275.059C338.018 270.632 339.169 268.606 340.477 267.589C341.871 266.504 343.836 266.23 346.237 266.193H349.963V253.9H311.953V266.193H324.638C324.198 267.381 323.965 268.793 323.931 270.342V298.324H338.013Z" fill="#4F73C2" stroke="white" stroke-width="3"/>
<path d="M47.7532 218.532V201.473H30.6946V218.532H47.7532Z" fill="#3055AE" stroke="white" stroke-width="3"/>
<path d="M31.6865 218.532V201.473H14.6279V218.532H31.6865Z" fill="#FABF26" stroke="white" stroke-width="3"/>
<path d="M63.8198 186.399V169.34H46.7612V186.399H63.8198Z" fill="#3055AE" stroke="white" stroke-width="3"/>
<path d="M63.8198 202.465V185.407H46.7612V202.465H63.8198Z" fill="#FABF26" stroke="white" stroke-width="3"/>
<path d="M47.7532 202.465V185.407H30.6946V202.465H47.7532Z" fill="#4899B2" stroke="white" stroke-width="3"/>
<path d="M79.8867 186.399V169.34H62.8281V186.399H79.8867Z" fill="#4899B2" stroke="white" stroke-width="3"/>
<path d="M95.9531 170.332V153.273H78.8945V170.332H95.9531Z" fill="#3055AE" stroke="white" stroke-width="3"/>
<path d="M79.8867 154.265V137.207H62.8281V154.265H79.8867Z" fill="#4899B2" stroke="white" stroke-width="3"/>
<path d="M63.8198 218.532V201.473H46.7612V218.532H63.8198Z" fill="#3055AE" stroke="white" stroke-width="3"/>
<path d="M88.1548 218.532L88.5962 218.08L88.5972 218.078L88.6909 217.982L88.7661 217.872C110.072 186.424 152.388 173.578 188.218 173.666L205.205 217.573L205.576 218.532H269.273L268.385 216.445L177.479 2.61401L177.09 1.70093H117.923L117.536 2.61597L60.979 136.112L60.0952 138.197H78.894V154.264H94.9624V169.34H78.894V185.407H62.8276V202.464H78.894V218.532H88.1548ZM147.076 66.6345L167.485 119.636C159.713 120.279 151.48 121.606 143.073 123.67C135.831 125.445 128.964 127.644 122.616 130.15L147.076 66.6345Z" fill="#3055AE" stroke="white" stroke-width="3"/>
<path d="M79.8867 218.532V201.473H62.8281V218.532H79.8867Z" fill="#4899B2" stroke="white" stroke-width="3"/>
<path d="M495.839 61.5386V40.8657H475.164V61.5386H495.839Z" fill="#FABF26" stroke="white" stroke-width="3"/>
<path d="M476.129 41.856V21.1821H455.456V41.856H476.129Z" fill="#3055AE" stroke="white" stroke-width="3"/>
<path d="M476.129 22.1746V1.49976H455.456V22.1746H476.129Z" fill="#FABF26" stroke="white" stroke-width="3"/>
<path d="M495.839 22.1746V1.49976H475.164V22.1746H495.839Z" fill="#4899B2" stroke="white" stroke-width="3"/>
<path d="M495.839 100.903V80.2288H475.164V100.903H495.839Z" fill="#4899B2" stroke="white" stroke-width="3"/>
<path d="M476.129 81.2212V60.5464H455.456V81.2212H476.129Z" fill="#3055AE" stroke="white" stroke-width="3"/>
<path d="M476.156 61.5386V40.8657H455.428V61.5386H476.156Z" fill="#3055AE" stroke="white" stroke-width="3"/>
<path d="M456.447 41.856V21.1821H435.747V41.856H456.447Z" fill="#3055AE" stroke="white" stroke-width="3"/>
<path d="M495.838 218.663V99.9106H476.156V80.229H456.447V60.5464H435.747V218.663H495.838Z" fill="#3055AE" stroke="white" stroke-width="3"/>
<path d="M495.839 81.2212V60.5464H475.137V81.2212H495.839Z" fill="#3055AE" stroke="white" stroke-width="3"/>
<path d="M495.839 41.856V21.1821H475.137V41.856H495.839Z" fill="#3055AE" stroke="white" stroke-width="3"/>
<path d="M456.42 61.5386V40.8657H435.747V61.5386H456.42Z" fill="#4899B2" stroke="white" stroke-width="3"/>
<path d="M18.5586 234.6V217.542H1.5V234.6H18.5586Z" fill="#4899B2" stroke="white" stroke-width="3"/>
<path d="M18.5586 186.399V169.34H1.5V186.399H18.5586Z" fill="#3055AE" stroke="white" stroke-width="3"/>
<path d="M47.7532 170.332V153.273H30.6946V170.332H47.7532Z" fill="#FABF26" stroke="white" stroke-width="3"/>
<path d="M266.797 52.7014V35.0403H249.136V52.7014H266.797Z" fill="#FABF26" stroke="white" stroke-width="3"/>
<path d="M266.797 19.3625V1.70142H249.136V19.3625H266.797Z" fill="#3055AE" stroke="white" stroke-width="3"/>
<path d="M250.128 19.3625V1.70142H232.467V19.3625H250.128Z" fill="#FABF26" stroke="white" stroke-width="3"/>
<path d="M233.501 19.3625V1.70142H215.84V19.3625H233.501Z" fill="#3055AE" stroke="white" stroke-width="3"/>
<path d="M216.832 36.032V18.3708H199.171V36.032H216.832Z" fill="#4899B2" stroke="white" stroke-width="3"/>
<path d="M250.128 36.032V18.3708H232.467V36.032H250.128Z" fill="#3055AE" stroke="white" stroke-width="3"/>
<path d="M283.467 36.032V18.3708H265.807V36.032H283.467Z" fill="#3055AE" stroke="white" stroke-width="3"/>
<path d="M354.616 218.663V104.735L354.622 103.625C354.837 80.4854 361.002 68.0335 369.751 61.2271C378.725 54.2453 390.78 52.8924 403.239 52.7026H416.334V1.70166H299.145V18.3706H282.476V35.0396H265.805V52.7026H302.28C297.55 58.4654 294.648 67.9694 294.375 80.5161V218.663H354.616Z" fill="#3055AE" stroke="white" stroke-width="3"/>
<path d="M283.467 19.3625V1.70142H265.805V19.3625H283.467Z" fill="#3055AE" stroke="white" stroke-width="3"/>
<path d="M266.797 36.032V18.3708H249.136V36.032H266.797Z" fill="#3055AE" stroke="white" stroke-width="3"/>
<path d="M250.128 52.7026V35.0396H232.509V52.7026H250.128Z" fill="#3055AE" stroke="white" stroke-width="3"/>
<path d="M300.137 19.3625V1.70142H282.476V19.3625H300.137Z" fill="#4899B2" stroke="white" stroke-width="3"/>
</svg>
